P3
5 2
255
10 10 10
20 20 20
30 30 30
40 40 40
35 35 35
25 25 25
20 20 20
15 15 15
18 18 18
20 20 20
