P3
4 3
15
12
15
0
5
5
5
13
0
15
0
2
0
3
15
0
4
4
8
6
15
0
7
11
9
0
15
11
5
5
5
0
0
15
11
0
3
