P3
10 10
15
15 
12 
3
12 
2 
5
8 
3 
4
2
3 
5
6 
7 
5
4 
7 
6 
8 
7 
2
3 
5 
6
3 
6 
7
12
15 
7
3
12 
2 
5
8 
3 
4
9
3 
5
6 
7 
8
4 
7 
12
4
7 
3
3 
5 
6
3 
6 
7
15
15 
3
3
12 
2 
5
3
3 
4
2
2
5
6 
1
8
4 
7 
6 
8 
5
2
3 
5 
6
3 
6 
7
15
0
12 
3
11
2 
5
8 
3 
4
2
3 
8
6 
7 
8
4 
6
6 
8 
7 
2
3 
5 
6
3 
6 
7
12
9
11
3
12 
2 
5
8 
3 
4
2
3 
5
6 
7 
9
4 
7 
6 
8 
7 
7
3 
5 
6
3 
6 
7
3
4
14
5
2
1
3
8
5
12 
3
12 
2 
5
8 
5
4
2
3 
5
6 
7 
5
4 
7 
6 
8 
1
1
3 
5 
6
3 
6 
7
12
13
7
3
12 
2 
5
8 
3 
15
12
3 
5
6 
7 
8
4 
7 
12
4
7 
3
3 
5 
3
3 
6 
7
15
15 
12 
3
12 
2 
2
3
3 
4
2
3 
5
6 
11
8
4 
7 
6 
8 
4
2
9
5 
6
3 
6 
7
15
0
12 
3
12 
2 
5
8 
3 
7
2
3 
8
6 
7 
8
4 
6
6 
8 
7 
2
3 
5 
6
3 
6 
7
13
6
12 
3
12 
2 
5
8 
12
4
2
3 
5
6 
7 
8
4 
7 
6 
8 
7 
2
3 
5 
6
3 
6 
7
3
13
6
5
2
1
3
8
3
5
9
2
5
13