P3
7 7
15
15 
12 
3
12 
2 
5
8 
3 
4
2
3 
5
6 
7 
5
4 
7 
6 
8 
7 
2
3 
5 
6
3 
6 
7
12
15 
7
3
12 
2 
5
8 
3 
4
9
3 
5
6 
7 
8
4 
7 
12
4
7 
3
3 
5 
6
3 
6 
7
15
15 
12 
3
12 
2 
5
3
3 
4
2
3 
5
6 
7 
8
4 
7 
6 
8 
4
2
3 
5 
6
3 
6 
7
15
0
12 
3
12 
2 
5
8 
3 
4
2
3 
8
6 
7 
8
4 
6
6 
8 
7 
2
3 
5 
6
3 
6 
7
13
15 
12 
3
12 
2 
5
8 
3 
4
2
3 
5
6 
7 
8
4 
7 
6 
8 
7 
2
3 
5 
6
3 
6 
7
3
4
6
5
2
1
3
8

